<svg width="24" height="24" viewBox="0 0 24 24" fill="none" xmlns="http://www.w3.org/2000/svg">
<path d="M21.056 12.0004H19.056C18.7907 12.0004 18.5364 12.1057 18.3489 12.2933C18.1613 12.4808 18.056 12.7352 18.056 13.0004C18.056 13.2656 18.1613 13.5199 18.3489 13.7075C18.5364 13.895 18.7907 14.0004 19.056 14.0004V16.0004H17.87C17.9888 15.6802 18.0513 15.3419 18.055 15.0004C18.0549 14.34 17.837 13.6981 17.435 13.1742C17.033 12.6503 16.4693 12.2736 15.8314 12.1027C15.1935 11.9318 14.5171 11.9761 13.907 12.2288C13.2969 12.4815 12.7872 12.9285 12.457 13.5004C12.3903 13.6141 12.3467 13.74 12.3289 13.8706C12.311 14.0013 12.3192 14.1342 12.3529 14.2617C12.3866 14.3892 12.4452 14.5088 12.5253 14.6136C12.6054 14.7183 12.7054 14.8062 12.8196 14.8721C12.9338 14.9381 13.06 14.9808 13.1907 14.9978C13.3215 15.0148 13.4544 15.0057 13.5817 14.9712C13.7089 14.9366 13.8281 14.8772 13.9323 14.7964C14.0366 14.7156 14.1238 14.615 14.189 14.5004C14.2767 14.3484 14.403 14.2221 14.555 14.1344C14.707 14.0466 14.8794 14.0004 15.055 14.0004C15.3202 14.0004 15.5745 14.1057 15.7621 14.2933C15.9496 14.4808 16.055 14.7352 16.055 15.0004C16.055 15.2656 15.9496 15.5199 15.7621 15.7075C15.5745 15.895 15.3202 16.0004 15.055 16.0004C14.7897 16.0004 14.5354 16.1057 14.3479 16.2933C14.1603 16.4808 14.055 16.7352 14.055 17.0004C14.055 17.2656 14.1603 17.5199 14.3479 17.7075C14.5354 17.895 14.7897 18.0004 15.055 18.0004C15.3202 18.0004 15.5745 18.1057 15.7621 18.2933C15.9496 18.4808 16.055 18.7352 16.055 19.0004C16.055 19.2656 15.9496 19.5199 15.7621 19.7075C15.5745 19.895 15.3202 20.0004 15.055 20.0004C14.8794 20.0004 14.707 19.9542 14.555 19.8664C14.403 19.7786 14.2767 19.6524 14.189 19.5004C14.1238 19.3857 14.0366 19.2851 13.9323 19.2043C13.8281 19.1235 13.7089 19.0641 13.5817 19.0296C13.4544 18.995 13.3215 18.986 13.1907 19.003C13.06 19.02 12.9338 19.0627 12.8196 19.1286C12.7054 19.1945 12.6054 19.2824 12.5253 19.3872C12.4452 19.492 12.3866 19.6115 12.3529 19.739C12.3192 19.8665 12.311 19.9994 12.3289 20.1301C12.3467 20.2608 12.3903 20.3866 12.457 20.5004C12.7872 21.0723 13.2969 21.5192 13.907 21.7719C14.5171 22.0246 15.1935 22.0689 15.8314 21.898C16.4693 21.7271 17.033 21.3505 17.435 20.8266C17.837 20.3027 18.0549 19.6607 18.055 19.0004C18.0513 18.6589 17.9888 18.3206 17.87 18.0004H19.055V21.0004C19.055 21.2656 19.1603 21.5199 19.3479 21.7075C19.5354 21.895 19.7897 22.0004 20.055 22.0004C20.3202 22.0004 20.5745 21.895 20.7621 21.7075C20.9496 21.5199 21.055 21.2656 21.055 21.0004V14.0004C21.3202 14.0004 21.5745 13.895 21.7621 13.7075C21.9496 13.5199 22.055 13.2656 22.055 13.0004C22.055 12.7352 21.9496 12.4808 21.7621 12.2933C21.5745 12.1057 21.3212 12.0004 21.056 12.0004ZM9.08496 11.2434C9.1161 11.3716 9.1723 11.4923 9.25032 11.5987C9.32834 11.7051 9.42664 11.795 9.53955 11.8632C9.65247 11.9314 9.77776 11.9766 9.90822 11.9962C10.0387 12.0158 10.1717 12.0094 10.2997 11.9773C10.4277 11.9453 10.548 11.8882 10.6538 11.8094C10.7597 11.7306 10.8489 11.6317 10.9163 11.5183C10.9837 11.4049 11.028 11.2793 11.0466 11.1487C11.0653 11.0181 11.0579 10.8851 11.025 10.7574L9.26796 3.72737C9.14505 3.23356 8.86047 2.79505 8.45953 2.48167C8.05859 2.16829 7.56434 1.99805 7.05546 1.99805C6.54658 1.99805 6.05232 2.16829 5.65138 2.48167C5.25044 2.79505 4.96587 3.23356 4.84296 3.72737L3.08496 10.7574C3.05199 10.8851 3.04462 11.0181 3.06327 11.1487C3.08193 11.2793 3.12624 11.4049 3.19365 11.5183C3.26106 11.6317 3.35025 11.7306 3.45607 11.8094C3.56189 11.8882 3.68225 11.9453 3.81022 11.9773C3.93818 12.0094 4.07123 12.0158 4.20169 11.9962C4.33215 11.9766 4.45745 11.9314 4.57036 11.8632C4.68328 11.795 4.78157 11.7051 4.85959 11.5987C4.93761 11.4923 4.99381 11.3716 5.02496 11.2434L5.58496 9.00037H8.52496L9.08496 11.2434ZM6.08596 7.00037L6.78296 4.21337C6.80398 4.15798 6.84135 4.1103 6.89011 4.07665C6.93887 4.043 6.99671 4.02498 7.05596 4.02498C7.1152 4.02498 7.17304 4.043 7.2218 4.07665C7.27056 4.1103 7.30794 4.15798 7.32896 4.21337L8.02596 7.00037H6.08596ZM14.056 7.00037H15.056C15.3211 7.00064 15.5753 7.10608 15.7628 7.29356C15.9503 7.48104 16.0557 7.73524 16.056 8.00037V9.00037C16.056 9.26559 16.1613 9.51994 16.3489 9.70748C16.5364 9.89501 16.7907 10.0004 17.056 10.0004C17.3212 10.0004 17.5755 9.89501 17.7631 9.70748C17.9506 9.51994 18.056 9.26559 18.056 9.00037V8.00037C18.0552 7.20497 17.7388 6.44236 17.1764 5.87993C16.614 5.31749 15.8514 5.00117 15.056 5.00037H14.056C13.7907 5.00037 13.5364 5.10573 13.3489 5.29326C13.1613 5.4808 13.056 5.73515 13.056 6.00037C13.056 6.26559 13.1613 6.51994 13.3489 6.70748C13.5364 6.89501 13.7907 7.00037 14.056 7.00037ZM10.056 16.0004H9.05596C8.79082 16.0001 8.53662 15.8947 8.34914 15.7072C8.16166 15.5197 8.05622 15.2655 8.05596 15.0004V14.0004C8.05596 13.7352 7.9506 13.4808 7.76306 13.2933C7.57553 13.1057 7.32117 13.0004 7.05596 13.0004C6.79074 13.0004 6.53639 13.1057 6.34885 13.2933C6.16131 13.4808 6.05596 13.7352 6.05596 14.0004V15.0004C6.05675 15.7958 6.37308 16.5584 6.93551 17.1208C7.49795 17.6833 8.26055 17.9996 9.05596 18.0004H10.056C10.3212 18.0004 10.5755 17.895 10.7631 17.7075C10.9506 17.5199 11.056 17.2656 11.056 17.0004C11.056 16.7352 10.9506 16.4808 10.7631 16.2933C10.5755 16.1057 10.3212 16.0004 10.056 16.0004Z" fill="#0045E6"/>
</svg>
