<svg width="18" height="18" viewBox="0 0 18 18" fill="none" xmlns="http://www.w3.org/2000/svg">
<path d="M14.4205 7.77273C14.4205 12.0682 8.89773 15.75 8.89773 15.75C8.89773 15.75 3.375 12.0682 3.375 7.77273C3.375 6.30801 3.95686 4.90328 4.99257 3.86757C6.02828 2.83186 7.43301 2.25 8.89773 2.25C10.3624 2.25 11.7672 2.83186 12.8029 3.86757C13.8386 4.90328 14.4205 6.30801 14.4205 7.77273Z" stroke="#212429" stroke-linecap="round" stroke-linejoin="round"/>
<path d="M8.89767 9.61346C9.91438 9.61346 10.7386 8.78926 10.7386 7.77255C10.7386 6.75584 9.91438 5.93164 8.89767 5.93164C7.88097 5.93164 7.05676 6.75584 7.05676 7.77255C7.05676 8.78926 7.88097 9.61346 8.89767 9.61346Z" stroke="#212429" stroke-linecap="round" stroke-linejoin="round"/>
</svg>
