<svg width="18" height="25" viewBox="0 0 18 25" fill="none" xmlns="http://www.w3.org/2000/svg">
<path d="M4.72 21.7C4.76 20.04 5.27 18.63 6.25 17.47C7.23 16.31 8.5 15.36 10.06 14.62C12.06 13.68 13.49 12.67 14.35 11.59C15.23 10.49 15.67 9.22 15.67 7.78C15.67 6.18 15.06 4.89 13.84 3.91C12.64 2.91 10.96 2.41 8.8 2.41C6.82 2.41 5.19 2.92 3.91 3.94C2.63 4.96 1.91 6.48 1.75 8.5L0.43 8.17C0.45 6.73 0.82 5.47 1.54 4.39C2.26 3.31 3.24 2.47 4.48 1.87C5.74 1.27 7.18 0.969998 8.8 0.969998C10.58 0.969998 12.09 1.27 13.33 1.87C14.57 2.45 15.51 3.25 16.15 4.27C16.79 5.29 17.11 6.46 17.11 7.78C17.11 9.48 16.62 10.98 15.64 12.28C14.68 13.58 13.03 14.79 10.69 15.91C9.43 16.51 8.37 17.2 7.51 17.98C6.65 18.76 6.21 19.52 6.19 20.26H17.08V21.7H4.72ZM0.19 22.51C0.19 21.07 0.5 19.74 1.12 18.52C1.76 17.3 2.61 16.2 3.67 15.22C4.75 14.22 5.96 13.37 7.3 12.67C8.98 11.79 10.11 10.99 10.69 10.27C11.29 9.55 11.59 8.84 11.59 8.14C11.59 7.32 11.33 6.68 10.81 6.22C10.29 5.76 9.53 5.53 8.53 5.53C7.59 5.53 6.82 5.88 6.22 6.58C5.64 7.28 5.34 8.23 5.32 9.43L3.82 9.04C4 7.34 4.53 6.09 5.41 5.29C6.29 4.49 7.33 4.09 8.53 4.09C10.05 4.09 11.18 4.46 11.92 5.2C12.66 5.94 13.03 6.92 13.03 8.14C13.03 8.72 12.89 9.32 12.61 9.94C12.35 10.56 11.85 11.21 11.11 11.89C10.39 12.55 9.34 13.24 7.96 13.96C6.78 14.56 5.71 15.29 4.75 16.15C3.79 17.01 3.03 17.98 2.47 19.06C1.91 20.12 1.63 21.28 1.63 22.54V23.56H17.08V25H0.19V22.51Z" fill="#0045E6"/>
</svg>
