<svg width="19" height="26" viewBox="0 0 19 26" fill="none" xmlns="http://www.w3.org/2000/svg">
<path d="M2.13 19.48C2.73 21.18 3.65 22.39 4.89 23.11C6.15 23.83 7.71 24.19 9.57 24.19C12.17 24.19 14.12 23.7 15.42 22.72C16.72 21.72 17.37 20.3 17.37 18.46C17.37 17.5 17.19 16.67 16.83 15.97C16.47 15.25 15.86 14.61 15 14.05C14.14 13.49 12.96 12.94 11.46 12.4C13.42 11.76 14.77 10.98 15.51 10.06C16.25 9.14 16.62 8.15 16.62 7.09C16.62 5.67 16.03 4.54 14.85 3.7C13.69 2.84 12.1 2.41 10.08 2.41C8.28 2.41 6.78 2.77 5.58 3.49C4.4 4.19 3.58 5.35 3.12 6.97L1.8 6.52C2.02 5.52 2.45 4.6 3.09 3.76C3.75 2.92 4.65 2.25 5.79 1.75C6.95 1.23 8.38 0.969998 10.08 0.969998C11.76 0.969998 13.19 1.23 14.37 1.75C15.57 2.27 16.48 2.99 17.1 3.91C17.74 4.83 18.06 5.89 18.06 7.09C18.06 8.53 17.7 9.71 16.98 10.63C16.26 11.53 15.34 12.12 14.22 12.4C14.96 12.54 15.68 12.85 16.38 13.33C17.08 13.79 17.66 14.45 18.12 15.31C18.58 16.15 18.81 17.2 18.81 18.46C18.81 20.7 18.05 22.45 16.53 23.71C15.03 24.97 12.71 25.6 9.57 25.6C7.15 25.6 5.22 25.1 3.78 24.1C2.36 23.08 1.39 21.72 0.87 20.02L2.13 19.48ZM6.45 10.48H8.97C9.97 10.48 10.83 10.25 11.55 9.79C12.27 9.33 12.63 8.68 12.63 7.84C12.63 7.08 12.37 6.48 11.85 6.04C11.35 5.58 10.69 5.35 9.87 5.35C8.89 5.35 8.1 5.6 7.5 6.1C6.92 6.6 6.56 7.26 6.42 8.08L5.01 7.6C5.37 6.24 6 5.29 6.9 4.75C7.8 4.19 8.79 3.91 9.87 3.91C11.15 3.91 12.17 4.28 12.93 5.02C13.69 5.74 14.07 6.68 14.07 7.84C14.07 8.64 13.84 9.35 13.38 9.97C12.94 10.59 12.34 11.07 11.58 11.41C10.82 11.75 9.95 11.92 8.97 11.92H7.89V13.63H9.45C11.29 13.63 12.65 14.04 13.53 14.86C14.41 15.66 14.85 16.79 14.85 18.25C14.85 19.05 14.61 19.78 14.13 20.44C13.65 21.1 13 21.63 12.18 22.03C11.38 22.41 10.48 22.6 9.48 22.6C8.38 22.6 7.34 22.29 6.36 21.67C5.4 21.05 4.66 20.04 4.14 18.64L5.52 18.04C5.76 19.04 6.25 19.81 6.99 20.35C7.75 20.89 8.58 21.16 9.48 21.16C10.18 21.16 10.83 21.04 11.43 20.8C12.03 20.54 12.51 20.19 12.87 19.75C13.23 19.31 13.41 18.81 13.41 18.25C13.41 16.13 12.09 15.07 9.45 15.07H6.45V10.48Z" fill="#0045E6"/>
</svg>
