<svg width="19" height="25" viewBox="0 0 19 25" fill="none" xmlns="http://www.w3.org/2000/svg">
<path d="M5.39 17.04C5.63 18 6.11 18.75 6.83 19.29C7.57 19.83 8.42 20.1 9.38 20.1C10.36 20.1 11.21 19.77 11.93 19.11C12.67 18.43 13.04 17.46 13.04 16.2C13.04 14.84 12.68 13.84 11.96 13.2C11.24 12.56 10.38 12.24 9.38 12.24C8.66 12.24 7.97 12.46 7.31 12.9C6.65 13.32 6.18 13.83 5.9 14.43L0.89 13.41L1.88 0.599999H16.82V2.04H3.23L2.42 12.24L5.24 12.81C5.72 12.23 6.33 11.75 7.07 11.37C7.83 10.99 8.6 10.8 9.38 10.8C10.3 10.8 11.14 10.99 11.9 11.37C12.68 11.75 13.3 12.34 13.76 13.14C14.24 13.94 14.48 14.96 14.48 16.2C14.48 17.36 14.24 18.34 13.76 19.14C13.3 19.92 12.68 20.52 11.9 20.94C11.12 21.34 10.28 21.54 9.38 21.54C8.1 21.54 6.99 21.2 6.05 20.52C5.11 19.82 4.42 18.8 3.98 17.46L5.39 17.04ZM6.11 9.69L6.2 9.72C6.54 9.28 7.09 8.91 7.85 8.61C8.61 8.29 9.44 8.13 10.34 8.13C11.8 8.13 13.14 8.42 14.36 9C15.58 9.56 16.55 10.43 17.27 11.61C18.01 12.79 18.38 14.32 18.38 16.2C18.38 17.98 18 19.5 17.24 20.76C16.48 22 15.42 22.95 14.06 23.61C12.7 24.27 11.13 24.6 9.35 24.6C6.95 24.6 4.98 24.07 3.44 23.01C1.92 21.93 0.89 20.45 0.35 18.57L1.67 18.18C2.25 19.92 3.2 21.19 4.52 21.99C5.86 22.79 7.47 23.19 9.35 23.19C10.85 23.19 12.17 22.92 13.31 22.38C14.45 21.84 15.34 21.05 15.98 20.01C16.62 18.95 16.94 17.68 16.94 16.2C16.94 14.66 16.64 13.4 16.04 12.42C15.44 11.44 14.64 10.72 13.64 10.26C12.64 9.78 11.54 9.54 10.34 9.54C9.7 9.54 9.01 9.66 8.27 9.9C7.55 10.12 6.92 10.59 6.38 11.31L4.61 10.71L5.3 3.75H16.82V5.19H6.59L6.11 9.69Z" fill="#0045E6"/>
</svg>
