<svg width="19" height="26" viewBox="0 0 19 26" fill="none" xmlns="http://www.w3.org/2000/svg">
<path d="M16.94 6.31C16.2 4.87 15.27 3.86 14.15 3.28C13.05 2.7 11.63 2.41 9.89 2.41C8.21 2.41 6.75 2.8 5.51 3.58C4.27 4.36 3.31 5.58 2.63 7.24C1.97 8.88 1.64 11.01 1.64 13.63C1.64 17.23 2.37 19.89 3.83 21.61C5.31 23.33 7.27 24.19 9.71 24.19C12.07 24.19 13.88 23.57 15.14 22.33C16.4 21.07 17.03 19.38 17.03 17.26C17.03 15.76 16.7 14.54 16.04 13.6C15.4 12.66 14.55 11.97 13.49 11.53C12.43 11.09 11.28 10.87 10.04 10.87C9.48 10.87 8.87 10.96 8.21 11.14C7.55 11.32 6.86 11.66 6.14 12.16C5.44 12.66 4.71 13.39 3.95 14.35C3.93 14.09 3.92 13.84 3.92 13.6C3.92 13.36 3.92 13.13 3.92 12.91C3.92 10.67 4.18 8.89 4.7 7.57C5.22 6.25 5.93 5.3 6.83 4.72C7.73 4.12 8.73 3.82 9.83 3.82C11.13 3.82 12.23 4.08 13.13 4.6C14.05 5.12 14.85 5.98 15.53 7.18L14.15 7.99C13.79 7.05 13.24 6.36 12.5 5.92C11.78 5.48 10.89 5.26 9.83 5.26C8.43 5.26 7.32 5.81 6.5 6.91C5.7 8.01 5.3 9.52 5.3 11.44C5.56 11.08 5.94 10.75 6.44 10.45C6.94 10.15 7.51 9.92 8.15 9.76C8.79 9.58 9.42 9.49 10.04 9.49C11.52 9.49 12.9 9.76 14.18 10.3C15.46 10.84 16.49 11.68 17.27 12.82C18.07 13.96 18.47 15.44 18.47 17.26C18.47 19.8 17.72 21.83 16.22 23.35C14.72 24.85 12.55 25.6 9.71 25.6C7.83 25.6 6.17 25.18 4.73 24.34C3.31 23.5 2.2 22.2 1.4 20.44C0.6 18.66 0.2 16.39 0.2 13.63C0.2 10.63 0.6 8.2 1.4 6.34C2.22 4.48 3.35 3.12 4.79 2.26C6.25 1.4 7.95 0.969998 9.89 0.969998C11.97 0.969998 13.68 1.34 15.02 2.08C16.36 2.82 17.4 3.99 18.14 5.59L16.94 6.31ZM4.31 16.69C4.75 15.27 5.39 14.19 6.23 13.45C7.09 12.69 8.21 12.31 9.59 12.31C11.05 12.31 12.27 12.76 13.25 13.66C14.23 14.54 14.72 15.86 14.72 17.62C14.72 18.78 14.48 19.75 14 20.53C13.54 21.29 12.92 21.86 12.14 22.24C11.36 22.62 10.51 22.81 9.59 22.81C8.69 22.81 7.85 22.57 7.07 22.09C6.29 21.61 5.65 20.91 5.15 19.99C4.65 19.07 4.37 17.97 4.31 16.69ZM5.75 16.9C5.83 18.26 6.23 19.35 6.95 20.17C7.67 20.97 8.55 21.37 9.59 21.37C10.59 21.37 11.45 21.06 12.17 20.44C12.91 19.82 13.28 18.88 13.28 17.62C13.28 16.34 12.93 15.38 12.23 14.74C11.53 14.08 10.65 13.75 9.59 13.75C8.57 13.75 7.76 14.01 7.16 14.53C6.56 15.05 6.09 15.84 5.75 16.9Z" fill="#0045E6"/>
</svg>
