<svg width="22" height="23" viewBox="0 0 22 23" fill="none" xmlns="http://www.w3.org/2000/svg">
<g id="Download">
<path id="Vector" d="M10.4175 16.4906C10.4601 16.5331 10.5238 16.5756 10.5876 16.5969C10.6514 16.6182 10.7151 16.6394 10.7789 16.6394C10.8427 16.6394 10.9064 16.6182 10.9702 16.5969C11.034 16.5756 11.0977 16.5331 11.1403 16.4906L17.8786 9.75227C18.0699 9.56096 18.0699 9.22085 17.8786 9.02954C17.6873 8.83823 17.3472 8.83823 17.1559 9.02954L11.2891 14.8964V5.09707C11.2891 4.82074 11.0552 4.58691 10.7789 4.58691C10.5026 4.58691 10.2687 4.82074 10.2687 5.09707V14.9176L4.40192 9.02954C4.21061 8.83823 3.8705 8.83823 3.67919 9.02954C3.48788 9.22085 3.48788 9.56096 3.67919 9.75227L10.4175 16.4906ZM4.04055 18.3187H17.5172C17.7936 18.3187 18.0274 18.0849 18.0274 17.8085C18.0274 17.5322 17.7936 17.2984 17.5172 17.2984H4.04055C3.76422 17.2984 3.5304 17.5322 3.5304 17.8085C3.5304 18.0849 3.76422 18.3187 4.04055 18.3187Z" fill="#333333"/>
</g>
</svg>
