<svg width="10" height="10" viewBox="0 0 10 10" fill="none" xmlns="http://www.w3.org/2000/svg">
<g clip-path="url(#clip0_411_1716)">
<path d="M8.87618 4.19982C8.75907 4.05902 8.61237 3.94578 8.44651 3.86814C8.28066 3.79051 8.09972 3.75039 7.91659 3.75065H6.01659L6.21826 3.21023C6.35966 2.85305 6.38302 2.45999 6.28493 2.08857C6.18338 1.7278 5.96683 1.41004 5.66819 1.1836C5.36954 0.957151 5.00513 0.834394 4.63034 0.833984C4.54956 0.833942 4.47049 0.857291 4.40269 0.901211C4.33489 0.945131 4.28125 1.00774 4.24826 1.08148L3.06201 3.75148V9.16732H7.38576C7.67856 9.16734 7.96208 9.06458 8.18687 8.87696C8.41166 8.68933 8.56345 8.42874 8.61576 8.14065L9.14618 5.22398C9.17918 5.04392 9.1721 4.8588 9.12544 4.68178C9.07877 4.50476 8.99366 4.34021 8.87618 4.19982Z" fill="white"/>
<path d="M3.06242 3.75H2.08325C1.75183 3.75033 1.43408 3.88213 1.19973 4.11648C0.965385 4.35083 0.833583 4.66858 0.833252 5V7.91667C0.833583 8.24809 0.965385 8.56584 1.19973 8.80019C1.43408 9.03453 1.75183 9.16634 2.08325 9.16667H3.06242V3.75083V3.75Z" fill="white"/>
</g>
<defs>
<clipPath id="clip0_411_1716">
<rect width="10" height="10" fill="white"/>
</clipPath>
</defs>
</svg>
