<svg width="10" height="10" viewBox="0 0 10 10" fill="none" xmlns="http://www.w3.org/2000/svg">
<g clip-path="url(#clip0_411_1705)">
<path d="M8.87492 4.20067C8.75784 4.06011 8.61134 3.94695 8.44575 3.8692C8.28016 3.79144 8.09952 3.75098 7.91658 3.75067H6.01658L6.24992 3.15484C6.34697 2.89395 6.3793 2.61342 6.34411 2.3373C6.30893 2.06118 6.20729 1.79772 6.04791 1.56952C5.88854 1.34131 5.67618 1.15517 5.42906 1.02706C5.18194 0.898957 4.90743 0.83271 4.62909 0.834003C4.54893 0.83417 4.47053 0.857451 4.40328 0.901054C4.33603 0.944657 4.28278 1.00673 4.24992 1.07984L3.06242 3.75067H2.08325C1.75173 3.75067 1.43379 3.88237 1.19937 4.11679C0.964948 4.35121 0.833252 4.66915 0.833252 5.00067V7.91734C0.833252 8.24886 0.964948 8.5668 1.19937 8.80122C1.43379 9.03564 1.75173 9.16734 2.08325 9.16734H7.38742C7.67984 9.16724 7.96297 9.06462 8.18755 8.87735C8.41213 8.69007 8.56395 8.42998 8.61659 8.14234L9.14575 5.22567C9.17848 5.04541 9.17119 4.86016 9.12438 4.68303C9.07758 4.50591 8.99242 4.34123 8.87492 4.20067ZM2.91659 8.334H2.08325C1.97275 8.334 1.86676 8.2901 1.78862 8.21196C1.71048 8.13382 1.66659 8.02784 1.66659 7.91734V5.00067C1.66659 4.89016 1.71048 4.78418 1.78862 4.70604C1.86676 4.6279 1.97275 4.584 2.08325 4.584H2.91659V8.334ZM8.33325 5.07567L7.80408 7.99234C7.78634 8.0894 7.73472 8.17702 7.65841 8.23959C7.58211 8.30215 7.48608 8.33561 7.38742 8.334H3.74992V4.25484L4.88325 1.70484C4.99991 1.73885 5.10825 1.79667 5.20144 1.87466C5.29463 1.95265 5.37064 2.04911 5.42467 2.15796C5.4787 2.2668 5.50958 2.38567 5.51536 2.50704C5.52114 2.62842 5.50169 2.74968 5.45825 2.86317L5.23742 3.459C5.19036 3.58494 5.17448 3.7204 5.19112 3.85381C5.20776 3.98722 5.25643 4.11462 5.33297 4.22514C5.40952 4.33567 5.51167 4.42603 5.63071 4.48852C5.74975 4.55101 5.88214 4.58377 6.01658 4.584H7.91658C7.9778 4.5839 8.03828 4.59729 8.09373 4.62322C8.14918 4.64914 8.19824 4.68697 8.23742 4.734C8.27756 4.78039 8.30696 4.83506 8.32352 4.89412C8.34009 4.95319 8.34341 5.01518 8.33325 5.07567Z" fill="#2D3A48"/>
</g>
<defs>
<clipPath id="clip0_411_1705">
<rect width="10" height="10" fill="white"/>
</clipPath>
</defs>
</svg>
