<svg width="136" height="29" viewBox="0 0 136 29" fill="none" xmlns="http://www.w3.org/2000/svg">
<g clip-path="url(#clip0_108_13903)">
<path d="M33.9539 11.2161C33.1521 13.176 31.7593 15.985 30.4676 18.3472C25.0084 26.3587 20.9751 21.2881 20.8125 21.087C21.0739 21.3797 22.7018 22.6714 23.8046 20.1305C24.8437 18.108 26.6385 11.7882 27.5897 8.30869C28.3784 5.42587 28.5827 3.66042 31.0783 1.42568C33.5102 -0.74873 36.0914 -0.223565 36.3353 1.56647C36.5769 3.3565 35.4126 7.66061 33.9539 11.2161Z" fill="url(#paint0_linear_108_13903)"/>
<path d="M10.1382 20.7169C10.1997 20.6767 11.6057 22.4175 12.8579 20.4599C13.7673 19.0409 14.1913 17.0385 15.1601 16.3502C15.6852 15.977 17.1241 15.4854 18.1171 17.1704C18.8618 18.4352 20.0876 20.4621 21.1685 21.4007C23.0555 23.041 26.4013 23.9305 30.5138 18.2542C30.5138 18.2542 24.8877 31.1196 17.8952 23.9774C14.857 19.8968 11.5881 24.8467 10.1404 20.7169" fill="url(#paint1_linear_108_13903)"/>
<path d="M17.6909 23.7336C16.4387 22.2028 15.3512 22.2207 14.4483 22.7771C12.8754 23.7425 12.7985 26.3438 10.2019 26.5226C9.16496 26.5941 7.94352 25.9907 6.77261 23.9235C5.1909 21.1391 1.03669 13.6996 0.773073 12.2247C-2.0872 4.74274 3.77394 5.57853 5.63685 9.92511C6.01251 10.7788 7.7546 14.3343 8.72999 17.2528C12.2867 27.8902 12.8842 17.8406 17.6909 23.7336Z" fill="url(#paint2_linear_108_13903)"/>
<path d="M13.339 12.2129C13.7476 13.518 15.2853 14.032 16.8055 13.48C18.3258 12.928 19.244 11.31 18.8069 10.1033C18.3697 8.89653 16.8824 8.36689 15.3447 8.86524C13.8069 9.36359 12.9281 10.91 13.3368 12.2129H13.339Z" fill="url(#paint3_linear_108_13903)"/>
</g>
<path d="M47.4974 9.445H50.5174L51.9974 13.985L53.4774 9.445H56.5174L54.0974 16.045L55.5374 19.825L59.0974 9.425H62.6774L57.1374 23.625H54.2974L51.9974 18.065L49.7174 23.625H46.8574L41.3374 9.425H44.8974L48.4774 19.825L49.8774 16.045L47.4974 9.445ZM67.2253 23.825C66.332 23.825 65.532 23.6783 64.8253 23.385C64.132 23.0917 63.5453 22.6917 63.0653 22.185C62.5853 21.6783 62.2187 21.0983 61.9653 20.445C61.7253 19.7917 61.6053 19.105 61.6053 18.385C61.6053 17.6517 61.7253 16.9583 61.9653 16.305C62.2187 15.6517 62.5853 15.0717 63.0653 14.565C63.5453 14.0583 64.132 13.6583 64.8253 13.365C65.532 13.0717 66.332 12.925 67.2253 12.925C68.1187 12.925 68.912 13.0717 69.6053 13.365C70.2987 13.6583 70.8853 14.0583 71.3653 14.565C71.8453 15.0717 72.212 15.6517 72.4653 16.305C72.7187 16.9583 72.8453 17.6517 72.8453 18.385C72.8453 19.105 72.7187 19.7917 72.4653 20.445C72.212 21.0983 71.8453 21.6783 71.3653 22.185C70.8853 22.6917 70.2987 23.0917 69.6053 23.385C68.912 23.6783 68.1187 23.825 67.2253 23.825ZM64.8853 18.385C64.8853 18.9317 64.9853 19.4117 65.1853 19.825C65.3987 20.2383 65.6787 20.5583 66.0253 20.785C66.372 21.0117 66.772 21.125 67.2253 21.125C67.6653 21.125 68.0587 21.0117 68.4053 20.785C68.7653 20.545 69.0453 20.2183 69.2453 19.805C69.4453 19.3917 69.5453 18.9183 69.5453 18.385C69.5453 17.8383 69.4453 17.3583 69.2453 16.945C69.0453 16.5317 68.7653 16.2117 68.4053 15.985C68.0587 15.7583 67.6653 15.645 67.2253 15.645C66.772 15.645 66.372 15.7583 66.0253 15.985C65.6787 16.2117 65.3987 16.5317 65.1853 16.945C64.9853 17.3583 64.8853 17.8383 64.8853 18.385ZM84.5524 23.625H81.3524V17.725C81.3524 17.0317 81.219 16.5317 80.9524 16.225C80.699 15.905 80.359 15.745 79.9324 15.745C79.639 15.745 79.339 15.825 79.0324 15.985C78.7257 16.145 78.4457 16.365 78.1924 16.645C77.9524 16.925 77.7657 17.245 77.6324 17.605V23.625H74.4324V13.125H77.3124V14.885C77.579 14.4717 77.9124 14.1183 78.3124 13.825C78.7124 13.5317 79.1724 13.3117 79.6924 13.165C80.2124 13.005 80.779 12.925 81.3924 12.925C82.0724 12.925 82.619 13.0517 83.0324 13.305C83.459 13.545 83.779 13.865 83.9924 14.265C84.219 14.665 84.3657 15.0983 84.4324 15.565C84.5124 16.0183 84.5524 16.465 84.5524 16.905V23.625ZM86.0784 18.365C86.0784 17.3383 86.2784 16.4183 86.6784 15.605C87.0784 14.7783 87.6251 14.125 88.3184 13.645C89.0118 13.165 89.8118 12.925 90.7184 12.925C91.4518 12.925 92.1184 13.105 92.7184 13.465C93.3184 13.8117 93.7718 14.2717 94.0784 14.845V9.025H97.2785V20.065C97.2785 20.385 97.3318 20.6117 97.4385 20.745C97.5451 20.865 97.7184 20.9383 97.9584 20.965V23.625C97.3984 23.7317 96.9451 23.785 96.5984 23.785C96.0518 23.785 95.6051 23.665 95.2584 23.425C94.9251 23.185 94.7184 22.8517 94.6384 22.425L94.5784 21.885C94.2051 22.5383 93.6984 23.025 93.0584 23.345C92.4184 23.665 91.7451 23.825 91.0384 23.825C90.3184 23.825 89.6518 23.6917 89.0384 23.425C88.4384 23.145 87.9118 22.7583 87.4584 22.265C87.0184 21.7717 86.6784 21.1917 86.4384 20.525C86.1984 19.8583 86.0784 19.1383 86.0784 18.365ZM94.0984 19.665V17.465C93.9651 17.105 93.7718 16.7917 93.5184 16.525C93.2784 16.2583 92.9984 16.045 92.6784 15.885C92.3718 15.725 92.0584 15.645 91.7384 15.645C91.3918 15.645 91.0718 15.7183 90.7784 15.865C90.4984 16.0117 90.2518 16.2183 90.0384 16.485C89.8251 16.7383 89.6584 17.0317 89.5384 17.365C89.4318 17.6983 89.3784 18.0517 89.3784 18.425C89.3784 18.8117 89.4384 19.1717 89.5584 19.505C89.6918 19.825 89.8718 20.1117 90.0984 20.365C90.3251 20.605 90.5918 20.7917 90.8984 20.925C91.2051 21.0583 91.5384 21.125 91.8984 21.125C92.1251 21.125 92.3451 21.0917 92.5584 21.025C92.7718 20.945 92.9718 20.845 93.1584 20.725C93.3584 20.605 93.5384 20.4517 93.6984 20.265C93.8584 20.0783 93.9918 19.8783 94.0984 19.665ZM104.784 23.825C103.891 23.825 103.098 23.685 102.404 23.405C101.711 23.1117 101.118 22.7183 100.624 22.225C100.144 21.7317 99.7777 21.165 99.5244 20.525C99.2711 19.8717 99.1444 19.1917 99.1444 18.485C99.1444 17.4717 99.3644 16.5517 99.8044 15.725C100.258 14.885 100.904 14.2117 101.744 13.705C102.584 13.185 103.598 12.925 104.784 12.925C105.971 12.925 106.978 13.1783 107.804 13.685C108.644 14.1917 109.284 14.8583 109.724 15.685C110.164 16.4983 110.384 17.385 110.384 18.345C110.384 18.5317 110.371 18.7183 110.344 18.905C110.331 19.0783 110.318 19.2317 110.304 19.365H102.544C102.584 19.8317 102.711 20.225 102.924 20.545C103.151 20.865 103.438 21.1117 103.784 21.285C104.131 21.445 104.498 21.525 104.884 21.525C105.364 21.525 105.811 21.4117 106.224 21.185C106.651 20.9583 106.944 20.6517 107.104 20.265L109.824 21.025C109.558 21.5717 109.178 22.0583 108.684 22.485C108.204 22.8983 107.631 23.225 106.964 23.465C106.311 23.705 105.584 23.825 104.784 23.825ZM102.464 17.405H107.024C106.971 16.965 106.844 16.585 106.644 16.265C106.444 15.9317 106.178 15.6783 105.844 15.505C105.511 15.3183 105.144 15.225 104.744 15.225C104.331 15.225 103.958 15.3183 103.624 15.505C103.304 15.6783 103.044 15.9317 102.844 16.265C102.644 16.585 102.518 16.965 102.464 17.405ZM118.495 15.865C117.721 15.865 117.021 15.9917 116.395 16.245C115.768 16.485 115.315 16.845 115.035 17.325V23.625H111.835V13.125H114.775V15.245C115.135 14.5383 115.601 13.985 116.175 13.585C116.748 13.185 117.348 12.9783 117.975 12.965C118.121 12.965 118.228 12.965 118.295 12.965C118.375 12.965 118.441 12.9717 118.495 12.985V15.865ZM119.803 9.025H123.003V19.885C123.003 20.325 123.083 20.6383 123.243 20.825C123.403 21.0117 123.629 21.105 123.923 21.105C124.123 21.105 124.323 21.0783 124.523 21.025C124.736 20.9583 124.923 20.885 125.083 20.805L125.503 23.205C125.103 23.3917 124.643 23.5383 124.123 23.645C123.603 23.7517 123.116 23.805 122.663 23.805C121.756 23.805 121.049 23.565 120.543 23.085C120.049 22.5917 119.803 21.8983 119.803 21.005V9.025ZM126.036 25.205C126.302 25.285 126.549 25.345 126.776 25.385C127.016 25.4383 127.229 25.465 127.416 25.465C127.669 25.465 127.882 25.405 128.056 25.285C128.242 25.1783 128.402 24.985 128.536 24.705C128.669 24.4383 128.789 24.0783 128.896 23.625L124.896 13.125H128.196L130.636 20.345L132.716 13.125H135.736L131.736 25.325C131.549 25.8983 131.262 26.405 130.876 26.845C130.489 27.285 130.022 27.625 129.476 27.865C128.929 28.1183 128.329 28.245 127.676 28.245C127.396 28.245 127.122 28.2183 126.856 28.165C126.589 28.125 126.316 28.0517 126.036 27.945V25.205Z" fill="#0045E6"/>
<defs>
<linearGradient id="paint0_linear_108_13903" x1="25.7026" y1="21.9004" x2="32.4795" y2="7.79935" gradientUnits="userSpaceOnUse">
<stop stop-color="#007FFF"/>
<stop offset="1" stop-color="#0045E6"/>
</linearGradient>
<linearGradient id="paint1_linear_108_13903" x1="14.4989" y1="20.5605" x2="26.5322" y2="16.8749" gradientUnits="userSpaceOnUse">
<stop stop-color="#007FFF"/>
<stop offset="1" stop-color="#0045E6"/>
</linearGradient>
<linearGradient id="paint2_linear_108_13903" x1="2.85566" y1="14.75" x2="14.7467" y2="22.167" gradientUnits="userSpaceOnUse">
<stop stop-color="#007FFF"/>
<stop offset="1" stop-color="#0045E6"/>
</linearGradient>
<linearGradient id="paint3_linear_108_13903" x1="14.4523" y1="10.9421" x2="18.0147" y2="10.3271" gradientUnits="userSpaceOnUse">
<stop stop-color="#007FFF"/>
<stop offset="1" stop-color="#0045E6"/>
</linearGradient>
<clipPath id="clip0_108_13903">
<rect width="36.3663" height="26.5286" fill="white"/>
</clipPath>
</defs>
</svg>
